<svg xmlns="http://www.w3.org/2000/svg" xmlns:xlink="http://www.w3.org/1999/xlink" id="Capa_1" x="0" y="0" version="1.1" viewBox="0 0 433.633 433.633" xml:space="preserve" style="enable-background:new 0 0 433.633 433.633"><path style="fill:gold" d="M216.816,0C133.747,0,66.351,67.396,66.351,150.465c0,55.38,30.824,106.057,78.89,132.18v31.347	c0,8.882,6.792,15.673,15.673,15.673h111.282c8.882,0,15.673-6.792,15.673-15.673v-30.824	c48.588-26.122,79.412-77.322,79.412-132.702C367.282,67.396,299.886,0,216.816,0z"/><g><path style="fill:#3a2c51" d="M260.18,350.563h-86.727c-8.882,0-15.673,6.792-15.673,15.673s6.792,15.673,15.673,15.673h86.727 c8.882,0,15.673-6.792,15.673-15.673S269.061,350.563,260.18,350.563z"/><path style="fill:#3a2c51" d="M235.102,402.286h-36.571c-8.882,0-15.673,6.792-15.673,15.673s6.792,15.673,15.673,15.673h36.571 c8.882,0,15.673-6.792,15.673-15.673S243.984,402.286,235.102,402.286z"/></g></svg>